<svg width="24" height="24" viewBox="0 0 24 24" xmlns="http://www.w3.org/2000/svg">
<path fill-rule="evenodd" clip-rule="evenodd" d="M10.3537 2.17806C10.8505 1.88861 11.4151 1.73611 11.99 1.73611C12.5649 1.73611 13.1295 1.88861 13.6263 2.17806C14.1222 2.46705 14.5327 2.88222 14.8162 3.38133L14.8175 3.3837L22.8125 17.375L22.8141 17.3778C23.0982 17.8709 23.2478 18.43 23.2479 18.9992C23.2481 19.5694 23.0982 20.1296 22.8134 20.6236C22.5285 21.1175 22.1187 21.5279 21.6251 21.8133C21.1315 22.0988 20.5715 22.2494 20.0013 22.25H4.00482C3.43406 22.254 2.87228 22.1076 2.376 21.8256C1.87786 21.5424 1.46343 21.1326 1.17472 20.6377C0.886009 20.1427 0.733279 19.5803 0.73201 19.0073C0.730744 18.4353 0.880432 17.8732 1.16593 17.3777L1.1675 17.375L9.1625 3.3837L9.16369 3.38159C9.44711 2.88236 9.85771 2.4671 10.3537 2.17806ZM11.99 4.23611C11.8573 4.23611 11.727 4.27131 11.6124 4.3381C11.4978 4.4049 11.4029 4.5009 11.3375 4.61633L11.3353 4.62019L3.33251 18.6251C3.26639 18.7396 3.23171 18.8695 3.232 19.0018C3.2323 19.134 3.26754 19.2638 3.33417 19.378C3.40079 19.4922 3.49643 19.5868 3.61139 19.6521C3.72634 19.7175 3.85653 19.7513 3.98875 19.7501L4 19.75L19.9987 19.75C20.1303 19.7499 20.2595 19.7151 20.3734 19.6492C20.4874 19.5834 20.5819 19.4887 20.6477 19.3747C20.7134 19.2607 20.748 19.1314 20.7479 18.9998C20.7479 18.8682 20.7133 18.739 20.6475 18.625L20.6447 18.6202L12.6425 4.61633C12.5771 4.50091 12.4822 4.4049 12.3676 4.3381C12.253 4.27131 12.1227 4.23611 11.99 4.23611Z" />
<path fill-rule="evenodd" clip-rule="evenodd" d="M12 7.75001C12.6904 7.75001 13.25 8.30966 13.25 9.00001V13C13.25 13.6904 12.6904 14.25 12 14.25C11.3096 14.25 10.75 13.6904 10.75 13V9.00001C10.75 8.30966 11.3096 7.75001 12 7.75001Z" />
<path fill-rule="evenodd" clip-rule="evenodd" d="M10.75 17C10.75 16.3097 11.3096 15.75 12 15.75H12.01C12.7004 15.75 13.26 16.3097 13.26 17C13.26 17.6904 12.7004 18.25 12.01 18.25H12C11.3096 18.25 10.75 17.6904 10.75 17Z" />
</svg>
