<svg width="24" height="24" viewBox="0 0 24 24" fill="none" xmlns="http://www.w3.org/2000/svg">
<rect x="3.40625" y="4.82141" width="17.1875" height="4.20312" fill="#029FE2"/>
<path fill-rule="evenodd" clip-rule="evenodd" d="M8 1C8.55228 1 9 1.44772 9 2V6C9 6.55228 8.55228 7 8 7C7.44772 7 7 6.55228 7 6V2C7 1.44772 7.44772 1 8 1Z" fill="#04354D"/>
<path fill-rule="evenodd" clip-rule="evenodd" d="M16 1C16.5523 1 17 1.44772 17 2V6C17 6.55228 16.5523 7 16 7C15.4477 7 15 6.55228 15 6V2C15 1.44772 15.4477 1 16 1Z" fill="#04354D"/>
<path fill-rule="evenodd" clip-rule="evenodd" d="M5 5C4.44772 5 4 5.44772 4 6V20C4 20.5523 4.44772 21 5 21H19C19.5523 21 20 20.5523 20 20V6C20 5.44772 19.5523 5 19 5H5ZM2 6C2 4.34315 3.34315 3 5 3H19C20.6569 3 22 4.34315 22 6V20C22 21.6569 20.6569 23 19 23H5C3.34315 23 2 21.6569 2 20V6Z" fill="#04354D"/>
<path fill-rule="evenodd" clip-rule="evenodd" d="M2 10C2 9.44772 2.44772 9 3 9H21C21.5523 9 22 9.44772 22 10C22 10.5523 21.5523 11 21 11H3C2.44772 11 2 10.5523 2 10Z" fill="#04354D"/>
<path fill-rule="evenodd" clip-rule="evenodd" d="M5.74875 16.125C5.74875 15.4346 6.30839 14.875 6.99875 14.875H7.01125C7.70161 14.875 8.26125 15.4346 8.26125 16.125C8.26125 16.8154 7.70161 17.375 7.01125 17.375H6.99875C6.30839 17.375 5.74875 16.8154 5.74875 16.125Z" fill="#F83A7D"/>
<path fill-rule="evenodd" clip-rule="evenodd" d="M10.7487 16.125C10.7487 15.4346 11.3084 14.875 11.9987 14.875H12.0112C12.7016 14.875 13.2612 15.4346 13.2612 16.125C13.2612 16.8154 12.7016 17.375 12.0112 17.375H11.9987C11.3084 17.375 10.7487 16.8154 10.7487 16.125Z" fill="#029FE2"/>
<path fill-rule="evenodd" clip-rule="evenodd" d="M15.7487 16.125C15.7487 15.4346 16.3084 14.875 16.9987 14.875H17.0112C17.7016 14.875 18.2612 15.4346 18.2612 16.125C18.2612 16.8154 17.7016 17.375 17.0112 17.375H16.9987C16.3084 17.375 15.7487 16.8154 15.7487 16.125Z" fill="#F29703"/>
</svg>
