<svg width="24" height="24" viewBox="0 0 24 24" fill="none" xmlns="http://www.w3.org/2000/svg">
<path fill-rule="evenodd" clip-rule="evenodd" d="M14.954 4.45693C15.5183 3.84769 16.4817 3.84769 17.046 4.45693L20.17 7.83L23.5431 10.954C24.1523 11.5183 24.1523 12.4817 23.5431 13.046L20.17 16.17L17.046 19.5431C16.4817 20.1523 15.5183 20.1523 14.954 19.5431L11.83 16.17L8.45693 13.046C7.84769 12.4817 7.84769 11.5183 8.45693 10.954L11.83 7.83L14.954 4.45693ZM16 5.84531L13.0406 9.04063L9.84531 12L13.0406 14.9594L16 18.1547L18.9594 14.9594L22.1547 12L18.9594 9.04063L16 5.84531Z" fill="#04354D"/>
<path fill-rule="evenodd" clip-rule="evenodd" d="M8.84185 4.44662C8.29032 3.85112 7.3486 3.85113 6.79708 4.44662L3.74357 7.74357L0.446619 10.7971C-0.148875 11.3486 -0.148871 12.2903 0.44662 12.8418L3.74357 15.8954L6.79708 19.1923C7.3486 19.7878 8.29033 19.7878 8.84185 19.1923L11.8954 15.8954L15.1923 12.8418C15.7878 12.2903 15.7878 11.3486 15.1923 10.7971L11.8954 7.74357L8.84185 4.44662ZM11.3848 14.089L13.8353 11.8195L11.3848 9.54991L9.37582 11.4105C9.13762 11.6311 9.13762 12.0078 9.37582 12.2284L11.3848 14.089Z" fill="#04354D"/>
<path fill-rule="evenodd" clip-rule="evenodd" d="M16 4C15.6181 4 15.2361 4.15231 14.954 4.45693L11.83 7.83L8.45693 10.954C7.84769 11.5183 7.84769 12.4817 8.45693 13.046L11.83 16.17L14.954 19.5431C15.2361 19.8477 15.6181 20 16 20V18.1547L13.0406 14.9594L9.84531 12L13.0406 9.04063L16 5.84531V4Z" fill="#029FE2"/>
</svg>
