<svg width="24" height="24" viewBox="0 0 24 24" xmlns="http://www.w3.org/2000/svg">
<g clip-path="url(#clip0_104_3369)">
<path d="M11.6856 7.84316L4.00229 14.1682V20.9973C4.00229 21.1741 4.07253 21.3437 4.19755 21.4687C4.32258 21.5938 4.49215 21.664 4.66896 21.664L9.33979 21.6515C9.51588 21.6504 9.68438 21.5797 9.8085 21.4548C9.93263 21.3299 10.0023 21.1609 10.0023 20.9848V16.9973C10.0023 16.8205 10.0725 16.6509 10.1976 16.5259C10.3226 16.4009 10.4921 16.3307 10.669 16.3307H13.3356C13.5124 16.3307 13.682 16.4009 13.807 16.5259C13.9321 16.6509 14.0023 16.8205 14.0023 16.9973V20.9807C14.0017 21.0686 14.0186 21.1557 14.0518 21.2371C14.0851 21.3184 14.1341 21.3924 14.1961 21.4548C14.258 21.5171 14.3317 21.5666 14.4129 21.6004C14.494 21.6341 14.5811 21.6515 14.669 21.6515L19.3356 21.664C19.5124 21.664 19.682 21.5938 19.807 21.4687C19.9321 21.3437 20.0023 21.1741 20.0023 20.9973V14.164L12.3231 7.84316C12.2328 7.77045 12.1203 7.73081 12.0044 7.73081C11.8884 7.73081 11.7759 7.77045 11.6856 7.84316ZM23.819 12.1432L20.3356 9.27233V3.50149C20.3356 3.36889 20.2829 3.24171 20.1892 3.14794C20.0954 3.05417 19.9682 3.00149 19.8356 3.00149H17.5023C17.3697 3.00149 17.2425 3.05417 17.1487 3.14794C17.055 3.24171 17.0023 3.36889 17.0023 3.50149V6.52649L13.2731 3.45566C12.9151 3.16107 12.4659 3 12.0023 3C11.5387 3 11.0895 3.16107 10.7315 3.45566L0.181458 12.1432C0.130828 12.185 0.0889391 12.2364 0.0581858 12.2945C0.0274324 12.3525 0.00841698 12.416 0.0022259 12.4814C-0.00396519 12.5468 0.00278944 12.6128 0.0221038 12.6756C0.0414182 12.7384 0.0729139 12.7967 0.114791 12.8473L1.17729 14.139C1.21918 14.1902 1.27083 14.2326 1.32923 14.2638C1.38764 14.2949 1.45164 14.3141 1.51753 14.3203C1.58342 14.3265 1.64989 14.3196 1.71307 14.2999C1.77626 14.2802 1.83491 14.2482 1.88562 14.2057L11.6856 6.13483C11.7759 6.06212 11.8884 6.02248 12.0044 6.02248C12.1203 6.02248 12.2328 6.06212 12.3231 6.13483L22.1231 14.2057C22.1737 14.2475 22.2321 14.279 22.2949 14.2983C22.3577 14.3177 22.4236 14.3244 22.489 14.3182C22.5544 14.312 22.6179 14.293 22.676 14.2623C22.734 14.2315 22.7854 14.1896 22.8273 14.139L23.8898 12.8473C23.9314 12.7965 23.9626 12.7379 23.9816 12.675C24.0006 12.612 24.007 12.546 24.0004 12.4806C23.9938 12.4152 23.9744 12.3517 23.9433 12.2938C23.9121 12.2359 23.8699 12.1847 23.819 12.1432Z" />
</g>
<defs>
<clipPath id="clip0_104_3369">
<rect width="24" height="24" />
</clipPath>
</defs>
</svg>
