<svg width="24" height="24" viewBox="0 0 24 24" fill="none" xmlns="http://www.w3.org/2000/svg">
<path fill-rule="evenodd" clip-rule="evenodd" d="M1.98471 8.08996L10.1322 16.2375L9.97631 16.3934C9.76484 16.6048 9.76484 16.9477 9.97631 17.1592L11.2243 18.4071C11.4358 18.6186 11.7786 18.6186 11.9901 18.4071L12.6411 17.7562L14.7965 19.9116C15.008 20.1231 15.3508 20.1231 15.5623 19.9116L17.0287 18.4453C17.2402 18.2338 17.2402 17.8909 17.0287 17.6794L14.8733 15.524L15.5241 14.8731C15.7356 14.6616 15.7356 14.3188 15.5241 14.1073L14.2762 12.8593C14.0647 12.6478 13.7218 12.6478 13.5103 12.8593L13.3545 13.0151L5.20705 4.86762C4.67835 4.33892 3.82117 4.33893 3.29247 4.86762L1.98471 6.17538C1.45602 6.70408 1.45602 7.56126 1.98471 8.08996ZM2.75054 6.94121C2.6448 7.04695 2.6448 7.21839 2.75054 7.32413L10.898 15.4716L12.5887 13.7809L4.44122 5.63345C4.33548 5.52771 4.16404 5.52771 4.0583 5.63345L2.75054 6.94121Z" fill="#04354D"/>
<path d="M17.4116 2.66006L18.7623 5.20771L21.31 6.55843L18.7623 7.90914L17.4116 10.4568L16.0609 7.90914L13.5132 6.55843L16.0609 5.20771L17.4116 2.66006Z" fill="#F83A7D"/>
<path d="M17.4116 2.66003L18.7623 5.20768L21.31 6.5584L18.7623 7.90911L17.4116 10.4568L16.0609 7.90911L13.5132 6.5584L16.0609 5.20768L17.4116 2.66003Z" fill="#F83A7D"/>
<path d="M3.22825 16.7463L4.00029 18.2025L5.45649 18.9746L4.00029 19.7466L3.22825 21.2028L2.4562 19.7466L1 18.9746L2.4562 18.2025L3.22825 16.7463Z" fill="#FED843"/>
<path d="M21.0813 17.5024L21.7461 18.7564L23 19.4212L21.7461 20.086L21.0813 21.3399L20.4164 20.086L19.1625 19.4212L20.4164 18.7564L21.0813 17.5024Z" fill="#029FE2"/>
</svg>
