<svg width="24" height="24" viewBox="0 0 24 24" xmlns="http://www.w3.org/2000/svg">
<path fill-rule="evenodd" clip-rule="evenodd" d="M10 4C6.13401 4 3 7.13401 3 11C3 14.866 6.13401 18 10 18C13.866 18 17 14.866 17 11C17 7.13401 13.866 4 10 4ZM1 11C1 6.02944 5.02944 2 10 2C14.9706 2 19 6.02944 19 11C19 15.9706 14.9706 20 10 20C5.02944 20 1 15.9706 1 11Z" />
<path fill-rule="evenodd" clip-rule="evenodd" d="M17.2929 15.9929C17.6834 15.6024 18.3166 15.6024 18.7071 15.9929L23.0071 20.2929C23.3976 20.6834 23.3976 21.3166 23.0071 21.7071C22.6166 22.0976 21.9834 22.0976 21.5929 21.7071L17.2929 17.4071C16.9024 17.0166 16.9024 16.3834 17.2929 15.9929Z" />
</svg>
