<svg width="24" height="24" viewBox="0 0 24 24" xmlns="http://www.w3.org/2000/svg">
<path d="M5.35303 5.49861C5.07131 5.21689 4.59572 5.29906 4.42477 5.65888L0 15L3.6 16.8L5.4 13.2V22.2H8.1C9.75684 22.2 11.1 20.8568 11.1 19.2V11.2455L5.35303 5.49861ZM9.6 17.7H7.2V15.9H9.6V17.7Z"/>
<path d="M19.5752 5.65889C19.4043 5.29907 18.9286 5.21695 18.6469 5.49862L12.9 11.2455V19.2C12.9 20.8568 14.2432 22.2 15.9 22.2H18.6V13.2L20.4 16.8L24 15L19.5752 5.65889ZM16.8 17.7H14.4V15.9H16.8V17.7Z"/>
<path d="M12.9 8.69999L16.8 4.79999L13.8 1.79999H10.2L7.2 4.79999L11.1 8.69999V5.77278L9.2272 3.89999H14.7728L12.9 5.77278V8.69999Z"/>
</svg>
