<svg width="24" height="24" viewBox="0 0 24 24" xmlns="http://www.w3.org/2000/svg">
<path d="M23.9366 6.36023C23.834 6.05548 23.6208 5.80934 23.3366 5.66478L15.9392 2L15.6274 2.43368C15.0076 3.29322 13.5826 3.84802 11.9997 3.84802C10.4168 3.84802 8.99181 3.29322 8.37207 2.43368L8.06023 2L0.662812 5.66478C0.374653 5.80934 0.161494 6.05548 0.0628087 6.36023C-0.0398235 6.66497 -0.0161391 6.98926 0.129914 7.27447L2.16282 11.3378C2.30493 11.6269 2.54967 11.8418 2.85362 11.9394C3.15756 12.0449 3.4852 12.0176 3.76941 11.8769L5.68784 10.9392V20.2301C5.68784 21.2069 6.48127 22 7.45627 22H16.5511C17.5261 22 18.3195 21.2069 18.3195 20.2301V10.9432L20.234 11.8808C20.5182 12.0254 20.8458 12.0488 21.1537 11.9433C21.4577 11.8418 21.7024 11.6269 21.8445 11.3417L23.8774 7.27447C24.0156 6.98926 24.0393 6.66497 23.9366 6.36023Z" />
</svg>
