<svg width="24" height="24" viewBox="0 0 24 24" xmlns="http://www.w3.org/2000/svg">
<path d="M22.3941 7.10586L20.4133 9.08672C20.2113 9.28867 19.8848 9.28867 19.6828 9.08672L14.9133 4.31718C14.7113 4.11523 14.7113 3.78867 14.9133 3.58672L16.8941 1.60586C17.6977 0.802341 19.0039 0.802341 19.8117 1.60586L22.3941 4.18828C23.202 4.99179 23.202 6.29805 22.3941 7.10586ZM13.2117 5.28828L1.92812 16.5719L1.01718 21.7926C0.892575 22.4973 1.50703 23.1074 2.21172 22.9871L7.43242 22.0719L18.716 10.7883C18.918 10.5863 18.918 10.2598 18.716 10.0578L13.9465 5.28828C13.7402 5.08633 13.4137 5.08633 13.2117 5.28828ZM6.33242 15.6051C6.09609 15.3687 6.09609 14.9906 6.33242 14.7543L12.9496 8.13711C13.1859 7.90078 13.5641 7.90078 13.8004 8.13711C14.0367 8.37344 14.0367 8.75156 13.8004 8.98789L7.1832 15.6051C6.94687 15.8414 6.56875 15.8414 6.33242 15.6051ZM4.78125 19.2188H6.84375V20.7785L4.07226 21.2641L2.73593 19.9277L3.22148 17.1562H4.78125V19.2188Z"/>
</svg>
