<svg width="24" height="24" viewBox="0 0 24 24"  xmlns="http://www.w3.org/2000/svg">
<path d="M3 3.25C3 2.55859 3.58519 2 4.30952 2H20.0238C20.7481 2 21.3333 2.55859 21.3333 3.25C21.3333 3.94141 20.7481 4.5 20.0238 4.5H18.7143V5.4375C18.7143 5.95703 18.2764 6.375 17.7321 6.375H6.60119C6.05692 6.375 5.61905 5.95703 5.61905 5.4375V4.5H4.30952C3.58519 4.5 3 3.94141 3 3.25ZM3 20.75C3 20.0586 3.58519 19.5 4.30952 19.5H5.61905V18.5625C5.61905 18.043 6.05692 17.625 6.60119 17.625H17.7321C18.2764 17.625 18.7143 18.043 18.7143 18.5625V19.5H20.0238C20.7481 19.5 21.3333 20.0586 21.3333 20.75C21.3333 21.4414 20.7481 22 20.0238 22H4.30952C3.58519 22 3 21.4414 3 20.75ZM6.27381 7.625H18.0595C18.4196 7.625 18.7143 7.90625 18.7143 8.25C18.7143 8.59375 18.4196 8.875 18.0595 8.875H6.27381C5.91369 8.875 5.61905 8.59375 5.61905 8.25C5.61905 7.90625 5.91369 7.625 6.27381 7.625ZM6.27381 10.125H20.6786C21.0387 10.125 21.3333 10.4062 21.3333 10.75C21.3333 11.0938 21.0387 11.375 20.6786 11.375H6.27381C5.91369 11.375 5.61905 11.0938 5.61905 10.75C5.61905 10.4062 5.91369 10.125 6.27381 10.125ZM6.27381 12.625H18.0595C18.4196 12.625 18.7143 12.9062 18.7143 13.25C18.7143 13.5938 18.4196 13.875 18.0595 13.875H6.27381C5.91369 13.875 5.61905 13.5938 5.61905 13.25C5.61905 12.9062 5.91369 12.625 6.27381 12.625ZM6.27381 15.125H18.0595C18.4196 15.125 18.7143 15.4062 18.7143 15.75C18.7143 16.0938 18.4196 16.375 18.0595 16.375H6.27381C5.91369 16.375 5.61905 16.0938 5.61905 15.75C5.61905 15.4062 5.91369 15.125 6.27381 15.125Z" />
</svg>
