<svg width="24" height="24" viewBox="0 0 24 24" xmlns="http://www.w3.org/2000/svg">
<path fill-rule="evenodd" clip-rule="evenodd" d="M2.89521 2.2026C3.16533 1.93247 3.6033 1.93247 3.87343 2.2026L6.29048 4.61965L7.16036 5.48952L16.7269 15.0561L17.8956 16.2247L22.319 20.6481C22.5891 20.9183 22.5891 21.3562 22.319 21.6264C22.0489 21.8965 21.6109 21.8965 21.3408 21.6264L17.8956 18.1812L16.7269 17.0126L5.85231 6.13792L4.9821 5.26772L2.89521 3.18082C2.62508 2.91069 2.62508 2.47273 2.89521 2.2026ZM1.61129 6.93735L4.10985 5.69976L4.98027 6.57018L2.13189 7.98211L4.03591 11.6532L7.40708 9.93835V20.3752C7.40708 20.631 7.61459 20.84 7.87307 20.84H16.2609C16.5194 20.84 16.7269 20.631 16.7269 20.3752V18.3168L17.8956 19.4855V20.368C17.8956 21.2687 17.1638 22 16.2646 22H7.87671C6.97749 22 6.24574 21.2687 6.24574 20.368V11.8009L4.47642 12.6656C4.2143 12.7953 3.91213 12.8205 3.63181 12.7232C3.35149 12.6331 3.12577 12.435 2.99471 12.1684L1.11982 8.42164C0.985115 8.15864 0.963272 7.85962 1.05793 7.57862C1.14894 7.29761 1.34553 7.07064 1.61129 6.93735ZM16.7269 9.93835V13.7518L17.8956 14.9204V11.8045L19.6612 12.6692C19.9234 12.8025 20.2255 12.8241 20.5095 12.7268C20.7898 12.6331 21.0155 12.435 21.1466 12.172L23.0215 8.42164C23.1489 8.15864 23.1707 7.85962 23.0761 7.57862C22.9814 7.29761 22.7848 7.07064 22.5227 6.93735L15.7003 3.55806L15.4127 3.95796C14.8411 4.75054 13.5269 5.26212 12.067 5.26212C10.6071 5.26212 9.2929 4.75054 8.72133 3.95796L8.43372 3.55806L7.16274 4.18761L8.03239 5.05726L8.10607 5.02074C8.97981 5.89618 10.4433 6.42577 12.0706 6.42577C13.698 6.42577 15.1615 5.89618 16.0352 5.02074L21.9512 7.95329L20.1746 11.6244L16.7269 9.93835Z" />
</svg>
