<svg width="24" height="24" viewBox="0 0 24 24"  xmlns="http://www.w3.org/2000/svg">
<path d="M22 2H2C0.895833 2 0 2.95982 0 4.14286V4.85714H24V4.14286C24 2.95982 23.1042 2 22 2ZM0 19.8571C0 21.0402 0.895833 22 2 22H22C23.1042 22 24 21.0402 24 19.8571V6.28571H0V19.8571ZM14.6667 9.5C14.6667 9.30357 14.8167 9.14286 15 9.14286H21C21.1833 9.14286 21.3333 9.30357 21.3333 9.5V10.2143C21.3333 10.4107 21.1833 10.5714 21 10.5714H15C14.8167 10.5714 14.6667 10.4107 14.6667 10.2143V9.5ZM14.6667 12.3571C14.6667 12.1607 14.8167 12 15 12H21C21.1833 12 21.3333 12.1607 21.3333 12.3571V13.0714C21.3333 13.2679 21.1833 13.4286 21 13.4286H15C14.8167 13.4286 14.6667 13.2679 14.6667 13.0714V12.3571ZM14.6667 15.2143C14.6667 15.0179 14.8167 14.8571 15 14.8571H21C21.1833 14.8571 21.3333 15.0179 21.3333 15.2143V15.9286C21.3333 16.125 21.1833 16.2857 21 16.2857H15C14.8167 16.2857 14.6667 16.125 14.6667 15.9286V15.2143ZM7.33333 9.14286C8.80417 9.14286 10 10.4241 10 12C10 13.5759 8.80417 14.8571 7.33333 14.8571C5.8625 14.8571 4.66667 13.5759 4.66667 12C4.66667 10.4241 5.8625 9.14286 7.33333 9.14286ZM2.79583 18.2589C3.14583 17.1116 4.15 16.2857 5.33333 16.2857H5.675C6.1875 16.5134 6.74583 16.6429 7.33333 16.6429C7.92083 16.6429 8.48333 16.5134 8.99167 16.2857H9.33333C10.5167 16.2857 11.5208 17.1116 11.8708 18.2589C12.0042 18.7009 11.6542 19.1429 11.2208 19.1429H3.44583C3.0125 19.1429 2.6625 18.6964 2.79583 18.2589Z" />
</svg>
