<svg width="24" height="24" viewBox="0 0 24 24"  xmlns="http://www.w3.org/2000/svg">
<path fill-rule="evenodd" clip-rule="evenodd" d="M13.7508 2.69295C13.8844 2.43799 13.96 2.14782 13.96 1.84C13.96 0.823796 13.1362 0 12.12 0C11.1038 0 10.28 0.823796 10.28 1.84C10.28 2.14782 10.3556 2.43799 10.4892 2.69295L7.36668 6.44H2V23H22.24V6.44H16.8733L13.7508 2.69295ZM12.6994 3.58692C12.5172 3.64731 12.3224 3.68 12.12 3.68C11.9176 3.68 11.7228 3.64731 11.5406 3.58692L9.16304 6.44H15.077L12.6994 3.58692ZM3.84 18.4V8.27997H20.4V18.4H3.84Z" />
</svg>
